<?xml version="1.0" encoding="UTF-8" standalone="no"?>
<svg
   xmlns:dc="http://purl.org/dc/elements/1.1/"
   xmlns:cc="http://creativecommons.org/ns#"
   xmlns:rdf="http://www.w3.org/1999/02/22-rdf-syntax-ns#"
   xmlns:svg="http://www.w3.org/2000/svg"
   xmlns="http://www.w3.org/2000/svg"
   xmlns:sodipodi="http://sodipodi.sourceforge.net/DTD/sodipodi-0.dtd"
   xmlns:inkscape="http://www.inkscape.org/namespaces/inkscape"
   version="1.1"
   id="Layer_1"
   x="0px"
   y="0px"
   viewBox="0 0 109.49 122.88"
   style="enable-background:new 0 0 109.49 122.88"
   xml:space="preserve"
   sodipodi:docname="doctor-male.svg"
   inkscape:version="0.92.5 (2060ec1f9f, 2020-04-08)"><metadata
     id="metadata13"><rdf:RDF><cc:Work
         rdf:about=""><dc:format>image/svg+xml</dc:format><dc:type
           rdf:resource="http://purl.org/dc/dcmitype/StillImage" /></cc:Work></rdf:RDF></metadata><defs
     id="defs11" /><sodipodi:namedview
     pagecolor="#ffffff"
     bordercolor="#666666"
     borderopacity="1"
     objecttolerance="10"
     gridtolerance="10"
     guidetolerance="10"
     inkscape:pageopacity="0"
     inkscape:pageshadow="2"
     inkscape:window-width="1850"
     inkscape:window-height="1016"
     id="namedview9"
     showgrid="false"
     inkscape:zoom="1.920573"
     inkscape:cx="-27.261779"
     inkscape:cy="61.439999"
     inkscape:window-x="70"
     inkscape:window-y="27"
     inkscape:window-maximized="1"
     inkscape:current-layer="Layer_1" /><style
     type="text/css"
     id="style2">.st0{fill-rule:evenodd;clip-rule:evenodd;}</style><g
     id="g6"
     style="fill:#00687d;fill-opacity:1"><path
       class="st0"
       d="M80.14,52.88v-9.04c0.4-1.64,1.15-2.49,2-2.64C85.09,40.67,84.62,52.25,80.14,52.88L80.14,52.88z M25.84,104.59c1.93,0,3.5,1.57,3.5,3.5c0,1.93-1.57,3.5-3.5,3.5c-1.93,0-3.5-1.57-3.5-3.5C22.34,106.15,23.91,104.59,25.84,104.59 L25.84,104.59z M39.83,39.38c-0.38,0.14-0.79-0.08-0.92-0.49c-0.13-0.41,0.07-0.86,0.45-1c1.46-0.55,2.92-0.8,4.39-0.79 c1.46,0.01,2.91,0.28,4.36,0.78c0.38,0.13,0.59,0.57,0.47,0.98c-0.12,0.41-0.52,0.64-0.9,0.51c-0.48-0.17-0.96-0.31-1.44-0.41 c0.05,0.17,0.07,0.34,0.07,0.52c0,1.07-0.91,1.94-2.02,1.94c-1.12,0-2.02-0.87-2.02-1.94c0-0.26,0.06-0.51,0.15-0.74 C41.55,38.85,40.69,39.05,39.83,39.38L39.83,39.38z M63.33,38.8c-0.09,0.21-0.15,0.03-0.15,0.69c0,0.66,0.91,1.94,2.02,1.94 c1.12,0,2.02-0.87,2.02-1.94c0-0.31-0.07-0.6-0.21-0.86c0.88,0.09,1.78,0.28,2.67,0.56c0.38,0.12,0.78-0.12,0.89-0.54 s-0.11-0.85-0.5-0.97c-1.46-0.46-2.92-0.68-4.37-0.68c-1.45,0-2.89,0.23-4.32,0.69c-0.38,0.12-0.6,0.56-0.49,0.97 c0.11,0.42,0.51,0.66,0.89,0.53C62.31,39.03,62.83,38.9,63.33,38.8L63.33,38.8z M54.74,117.87l-16.29-47.9l4.93,4.62l0,0 c0.03,0.03,0.07,0.06,0.11,0.09c0.72,0.57,1.48,1.02,2.26,1.37c0.77,0.34,1.58,0.6,2.41,0.79c1.45,0.32,4.63,0.53,7.66,0.53 c2.7,0,5.33-0.16,6.62-0.56c0.86-0.27,1.69-0.64,2.49-1.13c0.78-0.48,1.53-1.08,2.25-1.8l3.72-3.46L54.74,117.87L54.74,117.87z M38.04,69.58c-3.87,4.36-8.8,5.42-14.18,5.09c-1.52,0.04-2.99,0.16-4.39,0.37c-1.54,4.91-1.95,9.42-1.36,13.56 c0.57,4.02,2.1,7.7,4.43,11.04c1.02-0.4,2.14-0.62,3.3-0.62c5.01,0,9.06,4.06,9.06,9.06c0,5.01-4.06,9.06-9.06,9.06 c-5,0-9.06-4.06-9.06-9.06c0-2.67,1.15-5.07,2.99-6.72c-2.56-3.72-4.24-7.82-4.88-12.3c-0.59-4.11-0.3-8.53,0.97-13.25 C8.05,78,2.57,83.44,0,92.98v29.9h109.49v-29.9c-2.6-9.67-8.21-15.13-16.18-17.26c0.22,1.04,0.34,2.14,0.36,3.25 c0.02,1.47-0.13,2.98-0.46,4.41c0.51,0.18,1.01,0.38,1.49,0.59c0.99,0.44,1.9,0.96,2.69,1.58c2.61,2.06,3.71,4.52,4.02,7.21 c0.28,2.5-0.15,5.09-0.65,7.71l-0.01,0.05c-0.04,0.24-0.14,0.78-0.23,1.33c-0.63,3.66-1.34,7.75-4.1,10.53 c-0.98,0.99-2.11,1.68-3.39,2.06c-0.16,0.05-0.32,0.09-0.49,0.13c-0.63,1.08-1.8,1.81-3.14,1.81c-2,0-3.63-1.63-3.63-3.63 c0-2.01,1.63-3.63,3.63-3.63c1.42,0,2.65,0.81,3.25,2c0.53-0.24,1.02-0.58,1.47-1.03c2.04-2.04,2.65-5.6,3.2-8.78 c0.06-0.35,0.12-0.69,0.24-1.36l0.01-0.06c0.45-2.37,0.84-4.7,0.61-6.76c-0.21-1.86-0.98-3.58-2.79-5.01 c-0.58-0.46-1.26-0.84-2-1.17c-0.77-0.34-1.65-0.64-2.61-0.92l0-0.01c-0.03-0.01-0.06-0.02-0.08-0.03 c-0.16-0.06-0.31-0.13-0.44-0.23c-0.16,0.02-0.33,0.01-0.5-0.02c-1.16-0.23-2.35-0.31-3.44-0.27c-1.07,0.04-2.05,0.21-2.82,0.49 c-4.21,1.52-5.12,5.75-6.02,9.88l-0.02,0.06c-0.07,0.31-0.14,0.65-0.27,1.24c-0.18,0.78-0.36,1.47-0.53,2.12 c-0.63,2.39-1.18,4.48-0.41,6.99c0.2,0.64,0.41,1.2,0.66,1.68c0.66-0.72,1.61-1.17,2.67-1.17c2.01,0,3.63,1.63,3.63,3.63 c0,2.01-1.63,3.63-3.63,3.63c-1.34,0-2.5-0.72-3.13-1.8c-0.39-0.24-0.76-0.53-1.1-0.89c-0.95-0.98-1.67-2.39-2.2-4.13 c-1.04-3.39-0.38-5.9,0.37-8.77c0.17-0.67,0.36-1.35,0.5-2.01c0.05-0.21,0.15-0.7,0.26-1.22c0-0.02,0.01-0.04,0.01-0.06 c1.08-5,2.18-10.11,8.1-12.25c1.08-0.39,2.4-0.62,3.8-0.68c1.26-0.05,2.59,0.03,3.9,0.27c0.24-1.12,0.36-2.3,0.34-3.46 c-0.02-1.46-0.26-2.86-0.7-4.02c-1.31-0.18-2.68-0.29-4.09-0.33c-5.3,0.33-10.17-0.71-14.02-4.91l0.37-0.34 c0.5-0.47,1.04-0.95,1.55-1.41c4.1-3.7,6.74-6.08,6.45-13.05c0-0.02,0-0.04,0-0.06v-0.44c0.13,0.01,0.27,0.01,0.4-0.01 c3.1-0.44,4.77-4.07,5.17-7.56c0.11-0.96,0.13-1.91,0.06-2.76c-0.07-0.91-0.25-1.76-0.54-2.44c-0.57-1.37-1.52-2.18-2.87-2.08 l1.68-1c0.2-2.6,0.84-6.14,1.34-9.47c0.23-1.55,0.32-3.02,0.28-4.42c0.91-7.39-0.59-12.58-4.1-15.93 c-6.68-6.56-15.89-8.97-26.68-8.77c-9.69-0.07-16.73,2.71-21.72,7.71c-5.24-0.76-8.43,1.88-9.26,8.45v5.49 c0.2,3.4,1.3,4.62,2.66,4.36c0.04,0.58,0.09,1.17,0.18,1.77c0.56,3.74,1.45,7.8,1.79,11.09l1.26,0.68v1.21 c-0.56-0.62-1.24-0.98-1.98-1.11c-1.54-0.27-2.61,0.55-3.23,2.04c-0.28,0.68-0.46,1.53-0.54,2.44c-0.07,0.85-0.05,1.8,0.06,2.76 c0.4,3.48,2.07,7.12,5.17,7.56c0.17,0.02,0.34,0.02,0.51,0v2.98h0c0,0.11,0.01,0.21,0.03,0.32c1.15,5.3,2.53,6.52,5.42,9.11 c0.52,0.46,1.08,0.97,1.66,1.5L38.04,69.58L38.04,69.58z M78.26,32.27C62.43,21.41,52.69,12.42,39.49,20.42 c-4.7,2.85-6.15,8.68-8.29,11.94c0,8.36,0,16.7,0,25.06c1.25,5.73,2.79,6.22,6.62,9.81l6.65,6.24c1.2,0.95,2.55,1.51,4,1.83 c2.53,0.57,11.02,0.75,13.4,0.02c1.44-0.45,2.81-1.27,4.07-2.53l4.83-4.49c4.67-4.34,7.83-6.21,7.5-13.39 C78.26,47.34,78.26,39.82,78.26,32.27L78.26,32.27z M46.16,30.85c0.63-0.03,1.17,0.45,1.2,1.05c0.03,0.61-0.46,1.12-1.1,1.15 c-1.76,0.08-3.27,0.42-4.53,1c-1.23,0.57-2.23,1.38-3.03,2.4c-0.38,0.49-1.1,0.59-1.61,0.23c-0.51-0.36-0.62-1.05-0.24-1.54 c1.02-1.32,2.3-2.35,3.87-3.08C42.26,31.35,44.07,30.94,46.16,30.85L46.16,30.85z M64.3,32.83c-0.63,0-1.15-0.5-1.14-1.11 c0-0.61,0.52-1.1,1.15-1.1c1.9,0.01,3.64,0.35,5.21,1.05c1.58,0.71,2.96,1.78,4.13,3.23c0.39,0.48,0.3,1.17-0.21,1.55 c-0.5,0.37-1.23,0.28-1.61-0.2c-0.94-1.17-2.04-2.02-3.28-2.58C67.29,33.11,65.87,32.84,64.3,32.83L64.3,32.83z M52.23,52.26 c-0.4-0.32-0.45-0.89-0.12-1.27c0.33-0.38,0.93-0.43,1.32-0.11c0.47,0.38,0.92,0.58,1.35,0.58c0.43,0.01,0.9-0.18,1.41-0.58 c0.4-0.32,0.99-0.26,1.32,0.12c0.33,0.38,0.27,0.95-0.13,1.26c-0.87,0.68-1.74,1-2.63,0.99C53.88,53.24,53.04,52.9,52.23,52.26 L52.23,52.26z M49.28,64.13c-0.48-0.25-0.67-0.82-0.41-1.28c0.26-0.46,0.85-0.64,1.34-0.39c1.52,0.77,3.02,1.17,4.49,1.17 c1.47,0,2.95-0.38,4.42-1.16c0.48-0.25,1.08-0.08,1.34,0.37c0.26,0.46,0.09,1.03-0.39,1.28c-1.77,0.94-3.56,1.4-5.37,1.39 C52.89,65.51,51.08,65.05,49.28,64.13L49.28,64.13z M29.35,52.88v-9.04c-0.4-1.64-1.15-2.49-2-2.64 C24.4,40.67,24.87,52.25,29.35,52.88L29.35,52.88z M53.14,105.53l-6.39-25.94c5.59,1.25,9.98,1.37,16.25,0l-6.07,25.94H53.14 L53.14,105.53z"
       id="path4"
       style="fill:#00687d;fill-opacity:1" /></g></svg>